<?xml version="1.0" encoding="UTF-8"?>
<svg id="Layer_1" xmlns="http://www.w3.org/2000/svg" version="1.1" viewBox="0 0 3898.24 687.92">
  <!-- Generator: Adobe Illustrator 29.8.4, SVG Export Plug-In . SVG Version: 2.1.1 Build 6)  -->
  <defs>
    <linearGradient id="liveGradient" x1="0%" y1="0%" x2="100%" y2="100%">
      <stop offset="0%" stop-color="#FFC14D"/>
      <stop offset="100%" stop-color="#E67B35"/>
    </linearGradient>
    <style>
      .st0 {
        fill: url(#liveGradient);
      }
      .st1 {
        fill: #ffffff;
      }
    </style>
  </defs>
  <g>
    <path class="st0" d="M3023.91,477.05l-141.58,20.04c-23.67,1.11-14.77-27.72-11.87-43.17,8.07-42.88,25.78-93.55,39.65-135.48,24.02-72.56,52.97-143.32,83.65-213.26,2.79-24.05-33.56-27.61-51.18-25.31-9.71,1.27-29.99,6.8-38.14,11.89-20.71,12.94-24.02,37.77-29.97,58.53-29.91,104.38-79.16,227.38-97.68,331.68-4.1,23.13-12.27,70.15,18.39,76.29,38.47,7.71,168.47-14.99,210.44-26.13,16.69-4.43,21.79-5.74,27.48-23.4,4.28-13.28,6.45-26.05-9.22-31.68Z"/>
    <path class="st0" d="M3726.77,389.52c-6.46-.12-40.33,39.69-69.77,52.04s-81.04,35.01-106.1,7.36c-6.74-7.43-15.76-28.12-7.04-35.41,3.44-2.88,68.25-19.62,82.1-25.45,16.25-6.84,37.03-17.54,50.86-28.36,64.37-50.36,68.34-134.38-31.47-130.18-101.57,4.27-193.68,118.47-183.57,217.88,12.02,118.22,227.06,61.06,266.86-16.33,4.17-8.11,14.35-41.25-1.86-41.55ZM3638.13,274.35c9.68,1.94,13.55,8.43,13.69,17.81.61,39.71-64.06,76.38-99.41,80.47,1.23-30.95,52.3-104.98,85.72-98.27Z"/>
    <path class="st0" d="M3454.6,220.04c-22.53-.93-17.16,12.22-29.69,36.89s-62.76,124.88-86.65,160.63c-2.57,3.85-13.29,23.45-18.15,19.98-3.5-24.65-6.61-49.97-8.5-74.81-2.17-28.52.84-85.3-8.81-109.76-11.8-29.89-71.91-19.12-80.48-1.71-3.85,7.82,8.3,61.03,9.9,74.84,6.47,55.55,6.95,117.34,27.56,170.11,9.23,23.62,36.15,41.39,61.36,28.48,22.43-11.49,81.85-112.95,97.56-139.89,15.74-26.99,63.13-104.97,63.08-132.11-.03-15.11-11.07-31.98-27.18-32.64Z"/>
    <path class="st0" d="M3191.17,437.43c-9.46.13-32.58,38.8-56.19,30.69-11.49-3.94-5.55-32.75-3.99-42.56,6.94-43.74,29.15-91.33,35.43-134.02,5.2-35.35-17.68-39.1-48.22-33.95-30.36,5.12-24.31,15.1-28.36,36.66-10.56,56.18-43.26,140.73-35.81,195.26,3.24,23.73,20.05,37.47,43.81,38.43,28.76,1.17,97.09-38.49,100.49-69.17.69-6.24,2.01-21.48-7.15-21.35Z"/>
    <path class="st0" d="M3129.52,202.63c87.43,14.76,84.52-98.88,14.32-91.86-56.28,5.63-69.24,82.59-14.32,91.86Z"/>
  </g>
  <g class="st1">
    <path d="M2532.92,507.54h-92.54l-26.81-83.86h-134.07l-26.55,83.86h-92.01l137.23-376.98h100.69l134.07,376.98ZM2394.12,358.49l-40.48-126.71c-2.98-9.46-5.09-20.77-6.31-33.91h-2.1c-.88,11.04-3.07,22-6.57,32.86l-41.01,127.76h96.48Z"/>
    <path d="M2645.47,507.54h-80.91V130.56h80.91v376.98Z"/>
  </g>
  <g class="st1">
    <path d="M650.41,457.58h-1.02v151.08h-80.92V225.83h80.92v39.44h1.02c19.97-30.56,48.05-45.84,84.25-45.84,33.97,0,60.22,11.65,78.74,34.95,18.52,23.3,27.78,55.02,27.78,95.13,0,43.7-10.8,78.79-32.39,105.25-21.6,26.46-50.32,39.69-86.17,39.69-31.58,0-55.66-12.29-72.21-36.87ZM648.1,350.02v21c0,18.1,4.78,32.87,14.34,44.3,9.56,11.44,22.11,17.16,37.64,17.16,18.44,0,32.73-7.13,42.89-21.38,10.16-14.25,15.24-34.44,15.24-60.56,0-46.09-17.93-69.14-53.78-69.14-16.56,0-30.09,6.27-40.59,18.82-10.5,12.55-15.75,29.15-15.75,49.81Z"/>
    <path d="M971.95,457.58h-1.02v151.08h-80.92V225.83h80.92v39.44h1.02c19.97-30.56,48.05-45.84,84.25-45.84,33.97,0,60.22,11.65,78.74,34.95,18.52,23.3,27.78,55.02,27.78,95.13,0,43.7-10.8,78.79-32.39,105.25-21.6,26.46-50.32,39.69-86.17,39.69-31.58,0-55.66-12.29-72.21-36.87ZM969.65,350.02v21c0,18.1,4.78,32.87,14.34,44.3,9.56,11.44,22.11,17.16,37.64,17.16,18.44,0,32.73-7.13,42.89-21.38,10.16-14.25,15.24-34.44,15.24-60.56,0-46.09-17.93-69.14-53.78-69.14-16.56,0-30.09,6.27-40.59,18.82-10.5,12.55-15.75,29.15-15.75,49.81Z"/>
    <path d="M1283.61,507.54h-79.15V127.8h79.15v379.74Z"/>
    <rect x="1334.17" y="227.45" width="79.15" height="280.1"/>
    <path d="M1453.07,371.09v-4.1c0-84.65,60.02-139.54,138-139.54,69.25,0,130.82,40.53,130.82,136.46v20.52h-193.4c2.05,44.63,26.16,70.28,66.69,70.28,34.37,0,51.3-14.88,55.92-37.45h70.28c-8.72,57.97-54.89,90.29-128.25,90.29-81.05,0-140.05-50.79-140.05-136.46ZM1649.55,338.77c-2.57-40.53-23.08-60.02-58.48-60.02-33.34,0-55.92,22.06-61.56,60.02h120.04Z"/>
    <path d="M2031.02,501.28h-79.15v-35.32h-1c-18.04,27.72-44.5,41.58-79.41,41.58-32.06,0-57.86-11.31-77.4-33.94-19.54-22.63-29.31-54.23-29.31-94.81s10.77-76.4,32.31-101.95c21.54-25.55,49.76-38.32,84.67-38.32,33.06,0,56.11,11.86,69.13,35.57h1V121.54h79.15v379.74ZM1953.37,376.54v-19.29c0-16.7-4.84-30.56-14.53-41.58-9.69-11.02-22.29-16.53-37.82-16.53-17.53,0-31.23,6.89-41.08,20.67-9.86,13.78-14.78,32.69-14.78,56.74,0,22.54,4.76,39.91,14.28,52.1,9.52,12.19,22.71,18.29,39.58,18.29s29.1-6.43,39.2-19.29c10.1-12.86,15.15-29.89,15.15-51.1Z"/>
    <path d="M534.59,507.54h-92.54l-26.81-83.86h-134.07l-26.55,83.86h-92.01l137.23-376.98h100.69l134.07,376.98ZM395.78,358.49l-40.48-126.71c-2.98-9.46-5.09-20.77-6.31-33.91h-2.1c-.88,11.04-3.07,22-6.57,32.86l-41.01,127.76h96.48Z"/>
    <circle cx="1373.75" cy="147.36" r="39.58"/>
  </g>
</svg>
