<svg xmlns="http://www.w3.org/2000/svg" viewBox="0 0 64 64">
  <defs>
    <linearGradient id="g" x1="0" y1="0" x2="1" y2="1">
      <stop offset="0%" stop-color="#FFC14D"/>
      <stop offset="100%" stop-color="#E67B35"/>
    </linearGradient>
  </defs>
  <!-- Rays -->
  <g fill="url(#g)">
    <rect x="30" y="2" width="4" height="12" rx="2" transform="rotate(0 32 32)"/>
    <rect x="30" y="2" width="4" height="12" rx="2" transform="rotate(22.5 32 32)"/>
    <rect x="30" y="2" width="4" height="12" rx="2" transform="rotate(45 32 32)"/>
    <rect x="30" y="2" width="4" height="12" rx="2" transform="rotate(67.5 32 32)"/>
    <rect x="30" y="2" width="4" height="12" rx="2" transform="rotate(90 32 32)"/>
    <rect x="30" y="2" width="4" height="12" rx="2" transform="rotate(112.5 32 32)"/>
    <rect x="30" y="2" width="4" height="12" rx="2" transform="rotate(135 32 32)"/>
    <rect x="30" y="2" width="4" height="12" rx="2" transform="rotate(157.5 32 32)"/>
    <rect x="30" y="2" width="4" height="12" rx="2" transform="rotate(180 32 32)"/>
    <rect x="30" y="2" width="4" height="12" rx="2" transform="rotate(202.5 32 32)"/>
    <rect x="30" y="2" width="4" height="12" rx="2" transform="rotate(225 32 32)"/>
    <rect x="30" y="2" width="4" height="12" rx="2" transform="rotate(247.5 32 32)"/>
    <rect x="30" y="2" width="4" height="12" rx="2" transform="rotate(270 32 32)"/>
    <rect x="30" y="2" width="4" height="12" rx="2" transform="rotate(292.5 32 32)"/>
    <rect x="30" y="2" width="4" height="12" rx="2" transform="rotate(315 32 32)"/>
    <rect x="30" y="2" width="4" height="12" rx="2" transform="rotate(337.5 32 32)"/>
  </g>
  <!-- Glow -->
  <circle cx="32" cy="32" r="16" fill="#FFC14D" opacity="0.3"/>
  <!-- Core -->
  <circle cx="32" cy="32" r="12" fill="url(#g)"/>
</svg>
